<svg width="512" height="512" viewBox="0 0 512 512" fill="none" xmlns="http://www.w3.org/2000/svg">
  <defs>
    <linearGradient id="logo_grad" x1="0" y1="0" x2="512" y2="512" gradientUnits="userSpaceOnUse">
      <stop stop-color="#0E7C73"/>
      <stop offset="1" stop-color="#10B981"/>
    </linearGradient>
    <filter id="shadow" x="-20%" y="-20%" width="140%" height="140%">
      <feGaussianBlur in="SourceAlpha" stdDeviation="10"/>
      <feOffset dx="0" dy="4" result="offsetblur"/>
      <feComponentTransfer>
        <feFuncA type="linear" slope="0.3"/>
      </feComponentTransfer>
      <feMerge>
        <feMergeNode/>
        <feMergeNode in="SourceGraphic"/>
      </feMerge>
    </filter>
  </defs>
  <rect width="512" height="512" rx="128" fill="white"/>
  <path d="M120 160C120 137.909 137.909 120 160 120H352C374.091 120 392 137.909 392 160V352C392 374.091 374.091 392 352 392H160C137.909 392 120 374.091 120 352V160Z" fill="url(#logo_grad)" filter="url(#shadow)"/>
  <path d="M256 180L170 230V320L256 370L342 320V230L256 180Z" stroke="white" stroke-width="20" stroke-linecap="round" stroke-linejoin="round"/>
  <path d="M170 230L256 280L342 230" stroke="white" stroke-width="20" stroke-linecap="round" stroke-linejoin="round"/>
  <path d="M256 280V370" stroke="white" stroke-width="20" stroke-linecap="round" stroke-linejoin="round"/>
</svg>
